<?xml version="1.0" standalone="no"?>
<!DOCTYPE svg PUBLIC "-//W3C//DTD SVG 20010904//EN"
 "http://www.w3.org/TR/2001/REC-SVG-20010904/DTD/svg10.dtd">
<svg version="1.0" xmlns="http://www.w3.org/2000/svg"
 width="512.000000pt" height="512.000000pt" viewBox="0 0 512.000000 512.000000"
 preserveAspectRatio="xMidYMid meet">
<metadata>
Created by potrace 1.14, written by Peter Selinger 2001-2017
</metadata>
<g transform="translate(0.000000,512.000000) scale(0.100000,-0.100000)"
fill="#000000" stroke="none">
<path d="M1045 5110 c-61 -13 -123 -37 -158 -61 -46 -32 -108 -99 -123 -135
-18 -43 -31 -51 -94 -59 -332 -39 -527 -112 -604 -226 -14 -20 -29 -60 -34
-90 -19 -101 0 -184 67 -291 36 -58 214 -240 365 -373 100 -88 141 -129 241
-240 44 -49 88 -99 98 -110 49 -53 214 -250 308 -367 46 -57 86 -105 89 -108
3 -3 32 -39 65 -80 32 -41 65 -81 72 -88 7 -8 26 -30 41 -50 15 -21 35 -46 45
-56 9 -11 37 -46 62 -77 l45 -58 -47 -7 c-128 -21 -513 0 -513 28 0 22 -45 71
-79 86 -67 30 -146 6 -187 -56 -24 -36 -24 -118 0 -154 43 -65 123 -85 203
-49 23 11 43 18 45 16 2 -2 33 -6 71 -9 37 -3 97 -9 135 -12 37 -3 95 -7 130
-9 80 -5 99 -11 108 -37 9 -30 -24 -69 -87 -100 -30 -14 -56 -26 -59 -25 -3 0
-23 -3 -45 -8 -22 -4 -49 -9 -60 -11 -23 -5 -233 -5 -256 -1 -9 1 -27 10 -40
18 -37 24 -76 31 -117 19 -93 -25 -137 -120 -96 -206 22 -46 65 -75 116 -79
56 -4 92 10 127 50 28 33 32 34 113 36 181 4 416 43 499 82 72 35 65 8 -18
-73 -89 -86 -159 -121 -251 -124 -80 -2 -116 -24 -143 -83 -55 -120 66 -248
187 -197 49 20 88 73 83 110 0 3 14 17 33 30 90 65 306 309 377 427 23 37 24
38 44 20 12 -10 26 -23 32 -29 9 -10 71 -66 151 -134 16 -14 56 -46 89 -70 33
-25 62 -47 65 -50 7 -8 111 -75 138 -89 12 -6 22 -18 22 -25 0 -20 -97 -260
-127 -315 -31 -56 -48 -73 -100 -99 -38 -20 -189 -66 -245 -76 -107 -18 -186
-27 -271 -30 l-98 -3 -32 32 c-105 105 -281 23 -264 -123 14 -127 171 -186
260 -98 8 9 44 17 88 20 41 4 108 11 149 17 41 6 84 12 95 14 11 1 64 8 117
15 79 11 100 11 112 0 35 -28 10 -90 -56 -136 -84 -60 -212 -113 -314 -128
-21 -3 -50 -8 -64 -11 -61 -13 -108 -13 -146 0 -45 15 -81 12 -124 -10 -56
-29 -91 -100 -78 -159 19 -87 73 -131 160 -130 54 0 90 21 126 75 19 27 33 36
75 45 134 29 360 103 457 149 64 31 80 40 138 79 23 16 44 27 47 25 7 -8 -46
-103 -88 -157 -65 -86 -119 -124 -184 -133 -31 -4 -68 -16 -82 -27 -118 -88
-62 -269 86 -280 75 -6 144 52 159 133 4 22 12 45 18 51 6 6 29 37 51 70 22
32 42 61 45 64 7 7 33 51 84 145 74 134 170 374 190 475 8 42 13 60 51 215 20
83 38 151 39 153 2 1 25 -8 52 -20 27 -12 51 -23 54 -23 3 -1 21 -8 40 -17 30
-13 105 -40 120 -43 3 -1 37 -11 76 -23 53 -17 73 -28 82 -46 32 -72 128 -163
211 -203 71 -34 82 -37 176 -37 55 -1 118 3 140 7 94 18 244 61 377 108 79 28
199 70 268 95 123 43 173 53 184 35 10 -15 -91 -118 -178 -180 -181 -131 -322
-199 -446 -216 -48 -6 -209 -6 -305 0 -190 11 -241 15 -265 20 -14 3 -44 6
-67 7 -24 0 -43 6 -43 12 0 23 -57 76 -98 90 -105 37 -215 -34 -221 -145 -3
-61 18 -110 64 -145 32 -24 47 -29 101 -29 50 0 69 5 94 23 l32 24 86 -16 c48
-9 96 -18 107 -20 11 -2 69 -14 129 -25 61 -12 111 -23 113 -25 2 -2 -103 -74
-234 -161 -177 -118 -244 -158 -263 -155 -14 2 -46 3 -72 3 -121 0 -196 -130
-138 -242 61 -120 242 -114 296 9 16 35 39 53 188 148 94 60 187 117 206 128
19 10 37 21 40 24 13 14 163 80 180 80 30 0 26 -40 -11 -118 -39 -81 -207
-364 -221 -373 -6 -4 -20 -6 -30 -4 -61 12 -158 -85 -158 -158 0 -61 45 -134
100 -161 61 -30 147 -12 191 38 35 40 47 78 43 131 -3 46 0 52 119 228 67 100
127 189 134 197 7 8 30 40 52 70 23 30 186 201 364 380 658 663 841 896 852
1089 11 200 -81 331 -280 400 -69 24 -227 48 -302 47 l-51 -2 0 86 c3 426
-260 852 -782 1267 -47 38 -112 86 -145 107 -33 22 -62 42 -65 46 -5 6 -149
96 -185 116 -11 6 -38 21 -60 34 -64 37 -245 126 -310 153 -124 51 -194 69
-430 113 -192 35 -181 33 -265 50 -244 49 -360 95 -546 215 -108 71 -122 83
-142 127 -36 80 -121 148 -234 188 -50 17 -200 26 -253 14z m190 -510 c55 -23
101 -64 133 -118 22 -38 27 -60 29 -122 2 -87 -17 -136 -75 -196 -68 -70 -186
-98 -281 -66 -52 18 -135 95 -156 146 -24 57 -25 144 -3 203 23 63 94 136 152
157 54 20 151 18 201 -4z"/>
<path d="M1090 4433 c-23 -10 -49 -46 -50 -70 -1 -89 106 -130 155 -60 48 69
-26 161 -105 130z"/>
</g>
</svg>
